DataType=double
version=3
OpenSimVersion=4.5.2-2025-05-03-6a4c6ec41
endheader
time	q	/jointset/head_joint/q/speed
0.01	0	0
0.02	-2.5e-05	-0.005
0.03	-9.999999999999998e-05	-0.009999999999999998
0.04	-0.000225	-0.015
0.05	-0.0004000000000000001	-0.02
0.06	-0.0006250000000000001	-0.025
0.07000000000000001	-0.0009000000000000002	-0.03
0.08	-0.001225	-0.035
0.09	-0.0016	-0.04
0.09999999999999999	-0.002025	-0.045
0.11	-0.0025	-0.05
0.12	-0.003024999999999999	-0.05499999999999999
0.13	-0.003599999999999999	-0.05999999999999999
0.14	-0.004224999999999999	-0.065
0.15	-0.004899999999999999	-0.07000000000000001
0.16	-0.005625	-0.07500000000000001
0.17	-0.0064	-0.08000000000000002
0.18	-0.007225000000000001	-0.08500000000000002
0.19	-0.008100000000000003	-0.09000000000000002
0.2	-0.009025000000000004	-0.09500000000000003
0.21	-0.01000000000000001	-0.1
0.2200000000000001	-0.01102500000000001	-0.105
0.2300000000000001	-0.01210000000000001	-0.11
0.2400000000000001	-0.01322500000000001	-0.115
0.2500000000000001	-0.01440000000000001	-0.12
0.2600000000000001	-0.01562500000000001	-0.1250000000000001
0.2700000000000001	-0.01690000000000001	-0.1300000000000001
0.2800000000000001	-0.01822500000000001	-0.1350000000000001
0.2900000000000001	-0.01960000000000001	-0.1400000000000001
0.3000000000000001	-0.02102500000000002	-0.1450000000000001
0.3100000000000001	-0.02250000000000002	-0.1500000000000001
0.3200000000000001	-0.02402500000000002	-0.1550000000000001
0.3300000000000001	-0.02560000000000002	-0.1600000000000001
0.3400000000000001	-0.02722500000000002	-0.1650000000000001
0.3500000000000001	-0.02890000000000003	-0.1700000000000001
0.3600000000000002	-0.03062500000000003	-0.1750000000000001
0.3700000000000002	-0.03240000000000003	-0.1800000000000001
0.3800000000000002	-0.03422500000000003	-0.1850000000000001
0.3900000000000002	-0.03610000000000003	-0.1900000000000001
0.4000000000000002	-0.03802500000000004	-0.1950000000000001
0.4100000000000002	-0.04000000000000004	-0.2000000000000001
0.4200000000000002	-0.04202500000000005	-0.2050000000000001
0.4300000000000002	-0.04410000000000005	-0.2100000000000001
0.4400000000000002	-0.04622500000000005	-0.2150000000000001
0.4500000000000002	-0.04840000000000005	-0.2200000000000001
0.4600000000000002	-0.05062500000000006	-0.2250000000000001
0.4700000000000003	-0.05290000000000007	-0.2300000000000001
0.4800000000000003	-0.05522500000000007	-0.2350000000000002
0.4900000000000003	-0.05760000000000007	-0.2400000000000002
0.5000000000000002	-0.06002500000000006	-0.2450000000000001
0.5100000000000002	-0.06250000000000006	-0.2500000000000001
0.5200000000000002	-0.06502500000000005	-0.2550000000000001
0.5300000000000002	-0.06760000000000006	-0.2600000000000001
0.5400000000000003	-0.07022500000000007	-0.2650000000000001
0.5500000000000003	-0.07290000000000008	-0.2700000000000001
0.5600000000000003	-0.07562500000000008	-0.2750000000000001
0.5700000000000003	-0.07840000000000008	-0.2800000000000001
0.5800000000000003	-0.08122500000000009	-0.2850000000000001
0.5900000000000003	-0.08410000000000009	-0.2900000000000001
0.6000000000000003	-0.0870250000000001	-0.2950000000000002
0.6100000000000003	-0.09000000000000011	-0.3000000000000002
0.6200000000000003	-0.09302500000000011	-0.3050000000000002
0.6300000000000003	-0.09610000000000012	-0.3100000000000002
0.6400000000000003	-0.09922500000000012	-0.3150000000000002
0.6500000000000004	-0.1024000000000001	-0.3200000000000002
0.6600000000000004	-0.1056250000000001	-0.3250000000000002
0.6700000000000004	-0.1089000000000001	-0.3300000000000002
0.6800000000000004	-0.1122250000000001	-0.3350000000000002
0.6900000000000004	-0.1156000000000001	-0.3400000000000002
0.7000000000000004	-0.1190250000000002	-0.3450000000000002
0.7100000000000004	-0.1225000000000002	-0.3500000000000002
0.7200000000000004	-0.1260250000000002	-0.3550000000000002
0.7300000000000004	-0.1296000000000002	-0.3600000000000002
0.7400000000000004	-0.1332250000000002	-0.3650000000000002
0.7500000000000004	-0.1369000000000002	-0.3700000000000002
0.7600000000000005	-0.1406250000000002	-0.3750000000000002
0.7700000000000005	-0.1444000000000002	-0.3800000000000002
0.7800000000000005	-0.1482250000000002	-0.3850000000000002
0.7900000000000005	-0.1521000000000002	-0.3900000000000002
0.8000000000000005	-0.1560250000000002	-0.3950000000000002
0.8100000000000005	-0.1600000000000002	-0.4000000000000002
0.8200000000000005	-0.1640250000000002	-0.4050000000000002
0.8300000000000005	-0.1681000000000002	-0.4100000000000003
0.8400000000000005	-0.1722250000000002	-0.4150000000000003
0.8500000000000005	-0.1764000000000003	-0.4200000000000003
0.8600000000000005	-0.1806250000000003	-0.4250000000000003
0.8700000000000006	-0.1849000000000003	-0.4300000000000003
0.8800000000000006	-0.1892250000000003	-0.4350000000000003
0.8900000000000006	-0.1936000000000003	-0.4400000000000003
0.9000000000000006	-0.1980250000000003	-0.4450000000000003
0.9100000000000006	-0.2025000000000003	-0.4500000000000003
0.9200000000000006	-0.2070250000000003	-0.4550000000000003
0.9300000000000006	-0.2116000000000003	-0.4600000000000003
